<svg width="32" height="32" viewBox="0 0 32 32" fill="none" xmlns="http://www.w3.org/2000/svg">
<path d="M16.0043 5.28516C7.333 5.28516 0.30426 9.80478 0.30426 15.3806C0.30426 20.9563 7.333 25.9137 16.0043 25.9137C24.6756 25.9137 31.7041 20.9559 31.7041 15.3806C31.7041 9.80518 24.6752 5.28516 16.0043 5.28516Z" fill="#00BCFF"/>
<path d="M10.8971 12.2629C10.8892 12.2782 10.7358 12.4378 10.8353 12.566C11.0779 12.8778 11.8279 13.0565 12.5863 12.8854C13.0378 12.7836 13.6165 12.3207 14.1772 11.8737C14.7124 11.3851 15.3264 10.9915 15.993 10.7099C16.4188 10.5532 16.884 10.541 17.3174 10.6751C17.7574 10.8395 18.1658 11.079 18.5247 11.3832C19.5771 12.1787 23.8095 15.8921 24.541 16.5338C26.7882 15.5945 29.1148 14.8598 31.4928 14.3388C31.1835 12.4327 30.043 10.6157 28.2932 9.18783C25.8542 10.2174 22.6751 10.8339 19.7608 9.40362C18.7706 8.95306 17.7 8.70835 16.6133 8.6842C14.3012 8.73827 13.2996 9.74391 12.2397 10.8086L10.8971 12.2629Z" fill="white"/>
<path d="M24.3669 16.9356C24.317 16.8908 19.3904 12.5576 18.2741 11.7144C17.8852 11.3667 17.4056 11.1378 16.8916 11.0547C16.6704 11.0369 16.4478 11.0585 16.234 11.1182C15.5748 11.3677 14.965 11.733 14.433 12.1969C13.8092 12.6967 13.2207 13.167 12.6742 13.2901C12.014 13.4264 11.3271 13.3227 10.7358 12.9974C10.5974 12.9123 10.4858 12.7894 10.4141 12.6431C10.3746 12.5309 10.3692 12.4096 10.3985 12.2943C10.4279 12.1791 10.4907 12.0753 10.5789 11.996L11.9386 10.5178C12.0969 10.3594 12.2557 10.2006 12.4192 10.0446C11.9998 10.1079 11.5856 10.2017 11.1797 10.3251C10.7123 10.4812 10.2258 10.5723 9.73387 10.5961C9.23811 10.5457 8.74543 10.4683 8.25801 10.3643C6.80463 10.0215 5.38592 9.54426 4.02001 8.93872C2.08701 10.3851 0.828308 12.1609 0.454773 14.1528C0.732502 14.2265 1.46027 14.3933 1.64835 14.4352C6.0228 15.4128 7.38504 16.4198 7.63221 16.6302C7.77757 16.4657 7.95814 16.3365 8.16034 16.2523C8.36254 16.1681 8.58109 16.1311 8.79958 16.144C9.01806 16.157 9.23079 16.2195 9.42175 16.327C9.61271 16.4345 9.77695 16.5841 9.9021 16.7646C10.1971 16.5249 10.5653 16.3946 10.9447 16.3958C11.1578 16.3979 11.3691 16.4351 11.5703 16.506C11.7652 16.5687 11.9446 16.6724 12.0964 16.8103C12.2483 16.9482 12.3691 17.1171 12.4508 17.3058C12.6419 17.2187 12.8495 17.1743 13.0594 17.1756C13.3104 17.1788 13.558 17.2337 13.7871 17.337C14.1056 17.487 14.3639 17.7413 14.5199 18.0581C14.6759 18.375 14.7203 18.7357 14.6457 19.0812C14.7036 19.075 14.7618 19.0719 14.82 19.072C15.2797 19.0727 15.7204 19.2567 16.0455 19.5835C16.3705 19.9104 16.5533 20.3535 16.5539 20.8156C16.5539 21.103 16.4825 21.3859 16.3464 21.6387C16.7991 21.9168 17.3221 22.0576 17.8525 22.0441C17.9848 22.0441 18.1156 22.0167 18.2369 21.9636C18.3581 21.9105 18.4671 21.8327 18.5571 21.7353C18.6007 21.6735 18.6462 21.6012 18.6039 21.5491L17.3695 20.1713C17.3695 20.1713 17.1665 19.978 17.2336 19.9036C17.3029 19.8269 17.4285 19.9369 17.5176 20.0116C18.1456 20.5387 18.9123 21.3346 18.9123 21.3346C18.9257 21.3432 18.9762 21.4441 19.2597 21.4952C19.4293 21.5249 19.603 21.5199 19.7706 21.4806C19.9382 21.4413 20.0962 21.3685 20.2352 21.2665C20.314 21.2003 20.3859 21.1263 20.45 21.0457C20.4456 21.05 20.4408 21.0538 20.4356 21.0569C20.5221 20.9367 20.5657 20.7907 20.5593 20.6424C20.5528 20.4942 20.4968 20.3525 20.4003 20.2402L18.9593 18.6138C18.9593 18.6138 18.7532 18.422 18.8239 18.3456C18.8864 18.2786 19.0188 18.3796 19.1092 18.4549C19.5652 18.8384 20.2099 19.4881 20.8276 20.097C21.0336 20.237 21.2784 20.3078 21.5269 20.2991C21.7754 20.2904 22.0147 20.2028 22.2105 20.0488C22.3709 19.9598 22.5036 19.8279 22.5939 19.6676C22.6842 19.5074 22.7285 19.3251 22.7219 19.1411C22.6908 18.911 22.5836 18.6981 22.4176 18.5366L20.45 16.5473C20.45 16.5473 20.2416 16.3687 20.3154 16.2787C20.3757 16.2027 20.5098 16.312 20.5989 16.3864C21.2256 16.9138 22.9227 18.4782 22.9227 18.4782C23.1227 18.6079 23.3566 18.6747 23.5946 18.6699C23.8325 18.6652 24.0636 18.5891 24.2583 18.4515C24.3833 18.378 24.4886 18.2749 24.565 18.1512C24.6414 18.0275 24.6866 17.8869 24.6967 17.7417C24.7025 17.5914 24.6761 17.4416 24.6192 17.3025C24.5623 17.1634 24.4762 17.0383 24.3669 16.9356V16.9356Z" fill="white"/>
<path d="M14.8193 19.4578C14.5881 19.4904 14.3599 19.5412 14.1366 19.6098C14.1123 19.594 14.1553 19.4706 14.1837 19.3996C14.2134 19.3293 14.6153 18.1134 13.6354 17.6915C13.4161 17.5733 13.1648 17.5293 12.9187 17.5662C12.6725 17.6031 12.4448 17.7188 12.2694 17.8962C12.2284 17.9392 12.2098 17.9357 12.2053 17.8813C12.1994 17.6543 12.123 17.4349 11.9868 17.2537C11.8505 17.0726 11.6613 16.9389 11.4456 16.8714C11.1402 16.7769 10.8125 16.7841 10.5115 16.892C10.2104 16.9999 9.9521 17.2026 9.77498 17.47C9.74343 17.2303 9.6324 17.0083 9.45983 16.8398C9.28725 16.6714 9.06321 16.5663 8.82391 16.5416C8.5846 16.5169 8.34401 16.5741 8.141 16.7038C7.93799 16.8336 7.78443 17.0283 7.70512 17.2566C7.62581 17.4849 7.62538 17.7333 7.70392 17.9619C7.78245 18.1905 7.93535 18.3857 8.13791 18.5161C8.34048 18.6466 8.58088 18.7045 8.82026 18.6807C9.05965 18.6568 9.28405 18.5526 9.4572 18.3847C9.46339 18.3904 9.46575 18.4005 9.46269 18.4209C9.39021 18.754 9.43945 19.1021 9.60141 19.4017C9.76337 19.7013 10.0272 19.9322 10.3447 20.0523C10.5162 20.1188 10.702 20.1389 10.8837 20.1107C11.0653 20.0825 11.2365 20.007 11.38 19.8917C11.4651 19.8315 11.4789 19.8568 11.4669 19.9374C11.4304 20.1867 11.4768 20.7206 12.2216 21.0238C12.4061 21.1147 12.6148 21.1434 12.8169 21.1056C13.0189 21.0679 13.2034 20.9657 13.3432 20.8143C13.439 20.727 13.4652 20.7412 13.4701 20.8767C13.4821 21.1423 13.5714 21.3985 13.727 21.6135C13.8825 21.8285 14.0974 21.9928 14.345 22.0862C14.5927 22.1795 14.8621 22.1977 15.12 22.1385C15.3778 22.0793 15.6126 21.9453 15.7954 21.7531C15.9781 21.5609 16.1007 21.319 16.1479 21.0575C16.1951 20.7959 16.1649 20.5262 16.0609 20.2817C15.957 20.0373 15.784 19.8289 15.5633 19.6824C15.3426 19.5359 15.0839 19.4578 14.8195 19.4578H14.8193Z" fill="white"/>
<path d="M16.0012 4.86951C7.16469 4.86951 0.00180471 9.5936 0.00180471 15.3881C0.00180471 15.538 0 15.9514 0 16.0039C0 22.1518 6.26076 27.1304 15.9991 27.1304C25.7963 27.1304 32 22.1529 32 16.005V15.3881C31.9998 9.5936 24.8368 4.86951 16.0012 4.86951ZM31.2786 14.2224C28.9732 14.7351 26.7225 15.4706 24.5578 16.4184C23.0399 15.0872 19.5327 12.0216 18.5829 11.3053C18.2146 10.994 17.7956 10.7489 17.3444 10.5809C17.1478 10.5186 16.9429 10.4864 16.7367 10.4855C16.4742 10.489 16.2138 10.5331 15.9647 10.6162C15.2976 10.8946 14.683 11.2858 14.1473 11.7728L14.1168 11.797C13.5657 12.2375 12.996 12.6931 12.565 12.7895C12.3764 12.8323 12.1837 12.854 11.9904 12.8542C11.7964 12.8705 11.6012 12.848 11.4159 12.7881C11.2307 12.7281 11.059 12.632 10.9109 12.5051C10.8841 12.4705 10.9018 12.4148 10.9643 12.3348L10.9723 12.3239L12.3079 10.8778C13.3537 9.82651 14.3416 8.83392 16.6151 8.78147C16.6529 8.78037 16.6911 8.77966 16.7285 8.77966C17.7611 8.822 18.7759 9.06361 19.7177 9.49131C20.9831 10.1271 22.3766 10.463 23.7912 10.4732C25.3386 10.4464 26.8616 10.0803 28.2537 9.40061C29.8757 10.7718 30.9515 12.4232 31.2786 14.2224ZM16.0039 5.49065C20.694 5.49065 24.8909 6.8419 27.7125 8.97009C26.4814 9.53534 25.1476 9.83926 23.7944 9.86287C22.4705 9.85202 21.1666 9.53658 19.9829 8.94071C18.9593 8.47115 17.8539 8.20863 16.7295 8.1681C16.6868 8.1681 16.6436 8.16877 16.6012 8.16972C15.2469 8.14979 13.9305 8.61954 12.8919 9.4934C12.263 9.52652 11.641 9.64066 11.041 9.83301C10.6193 9.97439 10.1808 10.0588 9.73698 10.0841C9.56973 10.0841 9.26886 10.0688 9.24186 10.0676C7.64617 9.78523 6.08106 9.34986 4.56799 8.76744C7.38392 6.75605 11.4635 5.49065 16.0039 5.49065ZM4.01437 9.18734C5.96577 9.98961 8.33323 10.6091 9.08187 10.6579C9.29071 10.6717 9.5132 10.6954 9.7358 10.6959C10.2365 10.6715 10.7317 10.579 11.2077 10.421C11.4911 10.3411 11.8036 10.254 12.1326 10.1909C12.0445 10.2773 11.957 10.3651 11.869 10.4538L10.5126 11.9287C10.4095 12.0206 10.3365 12.1418 10.3033 12.2763C10.2702 12.4108 10.2784 12.5522 10.3269 12.6819C10.4056 12.8459 10.5293 12.9839 10.6835 13.0797C11.1223 13.3289 11.6194 13.4557 12.1233 13.4468C12.3164 13.4482 12.509 13.4279 12.6976 13.3864C13.2665 13.2584 13.8631 12.7806 14.4947 12.2756C15.018 11.8214 15.6157 11.462 16.2612 11.2132C16.422 11.1702 16.5874 11.1474 16.7536 11.1453C16.7962 11.145 16.8388 11.1475 16.881 11.153C17.3778 11.235 17.8411 11.4572 18.2171 11.7937C19.3308 12.6349 24.2579 16.9676 24.3064 17.0103C24.4043 17.1036 24.4813 17.2167 24.5323 17.3422C24.5833 17.4677 24.6071 17.6027 24.6022 17.7381C24.5933 17.868 24.5526 17.9937 24.4839 18.104C24.4152 18.2144 24.3206 18.3061 24.2083 18.3709C24.0167 18.4996 23.7923 18.5699 23.5619 18.5734C23.3597 18.5736 23.1615 18.5159 22.9907 18.4072C22.9727 18.3922 21.2846 16.8361 20.6628 16.3132C20.5851 16.2305 20.4827 16.1756 20.3712 16.1566C20.3464 16.1561 20.3219 16.1614 20.2995 16.172C20.2771 16.1826 20.2574 16.1982 20.242 16.2177C20.1443 16.3387 20.2538 16.5066 20.3829 16.6166L22.3548 18.61C22.5019 18.754 22.5978 18.9427 22.6276 19.1468C22.6327 19.3139 22.5917 19.4791 22.509 19.6242C22.4264 19.7692 22.3054 19.8884 22.1594 19.9686C21.9544 20.1138 21.7111 20.1946 21.4603 20.2009C21.26 20.2009 21.0642 20.1411 20.8977 20.0292L20.6149 19.7492C20.0977 19.2379 19.5638 18.7089 19.1731 18.3813C19.0942 18.2996 18.9911 18.2458 18.8792 18.2279C18.8559 18.2275 18.8328 18.2321 18.8114 18.2413C18.79 18.2505 18.7707 18.2641 18.7549 18.2813C18.7104 18.3311 18.6793 18.4205 18.791 18.5689C18.821 18.6088 18.8543 18.6461 18.8905 18.6804L20.3291 20.3051C20.4122 20.3997 20.4607 20.52 20.4667 20.646C20.4726 20.7721 20.4356 20.8964 20.3618 20.9985L20.3108 21.0632C20.2687 21.109 20.2239 21.1524 20.1767 21.193C19.9731 21.3433 19.726 21.422 19.4735 21.417C19.4083 21.4173 19.3432 21.4118 19.279 21.4005C19.1741 21.3922 19.0746 21.35 18.9954 21.2804L18.9774 21.2621C18.8992 21.1804 18.1739 20.436 17.5739 19.9324C17.4994 19.8529 17.401 19.8 17.2938 19.782C17.2693 19.7818 17.245 19.7868 17.2225 19.7969C17.2001 19.8069 17.18 19.8217 17.1637 19.8402C17.0454 19.9709 17.2236 20.1661 17.2992 20.2379L18.5259 21.5987C18.5154 21.6288 18.4999 21.6569 18.48 21.6817C18.4359 21.7428 18.2873 21.8926 17.8421 21.9487C17.788 21.9556 17.7336 21.9589 17.6791 21.9586C17.2568 21.9314 16.8461 21.8089 16.4773 21.6003C16.6087 21.3199 16.6676 21.0107 16.6484 20.7013C16.6291 20.392 16.5325 20.0925 16.3674 19.8307C16.2023 19.5689 15.9741 19.3533 15.704 19.2039C15.4338 19.0544 15.1305 18.976 14.8221 18.9758C14.8006 18.9758 14.7776 18.9765 14.756 18.9772C14.8086 18.6269 14.7464 18.2689 14.5789 17.9572C14.4114 17.6455 14.1476 17.397 13.8273 17.2491C13.5864 17.1405 13.3259 17.0828 13.0618 17.0796C12.8701 17.0786 12.6798 17.1133 12.5005 17.1818C12.314 16.8178 11.9918 16.5428 11.6042 16.4168C11.3931 16.3416 11.171 16.3023 10.947 16.3005C10.5797 16.2985 10.2213 16.4139 9.92357 16.6301C9.78825 16.4592 9.61852 16.319 9.42551 16.2186C9.23251 16.1183 9.02058 16.06 8.80362 16.0478C8.58666 16.0355 8.36956 16.0694 8.16656 16.1473C7.96356 16.2253 7.77924 16.3455 7.62567 16.5C7.2435 16.2064 5.72798 15.2387 1.67132 14.313C1.47754 14.2689 1.03771 14.1423 0.760684 14.0606C1.14124 12.2303 2.29833 10.5588 4.01445 9.18734H4.01437ZM11.5391 19.8016L11.4952 19.7622H11.4509C11.4053 19.7656 11.3619 19.7832 11.3268 19.8126C11.1525 19.9474 10.9403 20.0233 10.7204 20.0295C10.6046 20.0285 10.4899 20.0062 10.3821 19.9634C10.0844 19.8517 9.83716 19.6352 9.68629 19.3541C9.53543 19.073 9.49121 18.7464 9.56185 18.435C9.56669 18.4123 9.56544 18.3888 9.55821 18.3668C9.55098 18.3448 9.53804 18.3251 9.52073 18.3098L9.45435 18.2553L9.39228 18.3148C9.21152 18.4912 8.96944 18.5899 8.71748 18.5897C8.52953 18.5905 8.34535 18.5367 8.18707 18.4348C8.02878 18.333 7.90312 18.1873 7.82517 18.0154C7.74723 17.8435 7.72031 17.6526 7.74766 17.4657C7.775 17.2788 7.85545 17.1038 7.97934 16.9617C8.10322 16.8197 8.26528 16.7166 8.44604 16.6648C8.6268 16.613 8.81858 16.6148 8.99835 16.67C9.17812 16.7251 9.33824 16.8312 9.45946 16.9756C9.58069 17.12 9.65787 17.2965 9.68174 17.4839L9.71536 17.7474L9.85943 17.5243C10.0217 17.2712 10.2628 17.0791 10.5451 16.9782C10.8274 16.8772 11.135 16.873 11.4199 16.9662C11.6167 17.0283 11.7892 17.1508 11.9131 17.3166C12.0371 17.4823 12.1062 17.6829 12.1109 17.8902C12.1214 18.018 12.2119 18.0242 12.2295 18.0242C12.2514 18.0227 12.2727 18.0166 12.2922 18.0064C12.3116 17.9962 12.3288 17.982 12.3425 17.9648C12.4353 17.8674 12.5469 17.7901 12.6705 17.7377C12.7941 17.6853 12.927 17.6587 13.0612 17.6598C13.247 17.6639 13.4302 17.7055 13.5998 17.782C14.519 18.1784 14.1021 19.3526 14.0972 19.3646C14.0179 19.5591 14.0148 19.6451 14.0891 19.6947L14.1253 19.7118H14.1523C14.2136 19.7049 14.2736 19.6891 14.3304 19.665C14.487 19.6028 14.6525 19.5661 14.8206 19.5562H14.8211C14.9857 19.5562 15.1488 19.5889 15.3009 19.6523C15.453 19.7156 15.5912 19.8085 15.7076 19.9256C15.824 20.0426 15.9164 20.1816 15.9793 20.3346C16.0423 20.4875 16.0747 20.6514 16.0747 20.8169C16.0746 20.9824 16.0421 21.1463 15.9791 21.2992C15.916 21.4521 15.8236 21.591 15.7072 21.708C15.5907 21.825 15.4524 21.9178 15.3003 21.9811C15.1481 22.0444 14.9851 22.077 14.8204 22.077C14.4974 22.0789 14.1863 21.9546 13.9528 21.7302C13.7194 21.5058 13.5819 21.1989 13.5694 20.8745C13.5675 20.8168 13.5615 20.6634 13.4321 20.6634C13.3732 20.6703 13.319 20.699 13.2802 20.744C13.1201 20.9152 12.899 21.0155 12.6654 21.0229C12.526 21.0201 12.3884 20.9901 12.2602 20.9346C11.5462 20.6432 11.5364 20.1504 11.5652 19.9522C11.5723 19.9267 11.5735 19.9 11.569 19.874C11.5645 19.8479 11.5543 19.8232 11.5391 19.8016V19.8016ZM16.0038 25.2752C7.50738 25.2752 0.619878 20.8461 0.619878 15.3829C0.621197 15.1645 0.633572 14.9464 0.656952 14.7292C0.724786 14.7455 1.39955 14.9077 1.5393 14.9393C5.68326 15.8646 7.0526 16.8266 7.28399 17.0085C7.1856 17.2456 7.14698 17.5035 7.17158 17.7593C7.19618 18.0151 7.28322 18.2608 7.42499 18.4746C7.56676 18.6884 7.75886 18.8637 7.98424 18.985C8.20961 19.1063 8.46129 19.1697 8.71693 19.1697C8.81246 19.1699 8.9078 19.161 9.00168 19.1433C9.06289 19.4526 9.20305 19.7406 9.4084 19.979C9.61376 20.2175 9.87726 20.3982 10.1731 20.5034C10.3493 20.573 10.5369 20.6093 10.7262 20.6106C10.8454 20.6113 10.9642 20.5966 11.0797 20.5667C11.222 20.8678 11.4442 21.1235 11.7219 21.3057C11.9996 21.4879 12.3219 21.5895 12.6534 21.5993C12.8151 21.5993 12.9756 21.5705 13.1273 21.5142C13.2422 21.7969 13.4254 22.0463 13.6604 22.2399C13.8953 22.4334 14.1745 22.5651 14.4728 22.623C14.771 22.6808 15.0789 22.663 15.3687 22.5712C15.6584 22.4794 15.9207 22.3164 16.132 22.097C16.6047 22.3738 17.1362 22.5333 17.6824 22.5624C17.7608 22.5621 17.8391 22.5572 17.917 22.5475C18.1186 22.5413 18.3167 22.492 18.4979 22.4028C18.6792 22.3137 18.8394 22.1868 18.968 22.0305C18.9923 21.9969 19.014 21.9615 19.0329 21.9246C19.194 21.974 19.3611 22.0002 19.5294 22.0027C19.8933 21.9954 20.2449 21.869 20.531 21.6427C20.833 21.4434 21.0452 21.1331 21.1221 20.7783C21.1227 20.7744 21.1232 20.7704 21.1234 20.7664C21.2338 20.789 21.3461 20.8004 21.4587 20.8004C21.8265 20.7958 22.1847 20.6816 22.4878 20.4723C22.7184 20.3379 22.9087 20.1435 23.0386 19.9096C23.1686 19.6756 23.2334 19.4108 23.2261 19.1429C23.3379 19.1663 23.4518 19.1782 23.566 19.1784C23.9091 19.1747 24.2439 19.0711 24.5297 18.8802C24.7197 18.7636 24.8795 18.6034 24.9961 18.4128C25.1126 18.2223 25.1827 18.0067 25.2006 17.7837C25.2234 17.4733 25.1489 17.1636 24.9877 16.8979C27.0547 16.0499 29.1891 15.378 31.3681 14.8895C31.3806 15.0531 31.3875 15.2176 31.3875 15.3832C31.3875 20.8461 24.5001 25.2752 16.0039 25.2752L16.0038 25.2752Z" fill="#0A0080"/>
</svg>
