<svg width="52" height="23" viewBox="0 0 52 23" fill="none" xmlns="http://www.w3.org/2000/svg">
<path d="M17.4805 12.2431C18.3347 12.1678 19.1863 12.4146 19.8643 12.9355C20.5542 13.4554 20.9629 14.253 20.9629 15.4971V19.2597C20.9656 20.4572 20.1231 22.6768 17.4805 22.4883C15.8423 22.3702 14.9321 21.7045 14.4258 20.1943H16.3818C16.5396 20.4478 16.7706 20.6483 17.0449 20.7695C17.3195 20.8908 17.6252 20.9274 17.9209 20.874C18.2405 20.7952 18.5235 20.6114 18.7256 20.3535C18.996 19.9801 19.1415 19.532 19.1406 19.0722V18.6201C18.9983 18.8541 18.8101 19.0575 18.5869 19.2178C18.3636 19.3781 18.1095 19.4927 17.8408 19.5537C17.3 19.678 16.733 19.6309 16.2207 19.4189C15.6476 19.1756 15.1651 18.761 14.8398 18.2334C14.4275 17.5445 14.2274 16.7505 14.2646 15.9502C14.2204 14.9985 14.488 14.0578 15.0273 13.2695C15.5365 12.5851 16.3554 12.2735 17.4805 12.2431ZM3.92188 12.2744C4.3132 12.2872 4.69817 12.3809 5.05078 12.5498C5.40331 12.7186 5.71626 12.959 5.96973 13.2549C6.58266 14.0069 6.89487 14.957 6.84668 15.9228C6.89235 16.8962 6.6045 17.8566 6.0293 18.6465C5.78484 18.9682 5.46672 19.2279 5.10156 19.4043C4.73634 19.5807 4.33388 19.6687 3.92773 19.6611C3.51488 19.6695 3.10482 19.5874 2.72754 19.4209C2.35911 19.2387 2.05532 18.9498 1.85547 18.5928V20.9834C1.8569 21.1085 1.83061 21.2324 1.7793 21.3467C1.72791 21.4611 1.65247 21.5638 1.55762 21.6465C1.37662 21.8068 1.14108 21.8935 0.898438 21.8906H0V15.4941C6.72288e-05 14.2502 0.422793 13.4714 1.11816 12.9453C1.62115 12.5644 2.39345 12.203 3.92188 12.2744ZM10.6074 12.292C11.3244 12.2794 12.0343 12.4359 12.6787 12.748C13.2814 13.0537 13.5829 13.6285 13.583 14.4726V17.1074C13.5463 17.5832 13.5912 19.8716 9.55762 19.6924C8.97791 19.7003 8.41294 19.5076 7.96094 19.1474C7.74705 18.9535 7.57957 18.7146 7.4707 18.4482C7.36179 18.1816 7.31452 17.8936 7.33203 17.6064C7.30615 17.2317 7.38727 16.8573 7.56641 16.5263C7.74573 16.1952 8.01615 15.9209 8.3457 15.7353C8.85653 15.4843 9.41041 15.3311 9.97852 15.2842L10.6113 15.208C10.8636 15.1857 11.1121 15.1315 11.3506 15.0469C11.4643 15.0135 11.5641 14.9443 11.6357 14.8506C11.7074 14.7568 11.7473 14.643 11.749 14.5254C11.761 14.4077 11.7386 14.289 11.6846 14.1836C11.6304 14.078 11.5464 13.9894 11.4434 13.9297C11.1617 13.8039 10.8533 13.7478 10.5449 13.7656C10.3741 13.7482 10.2013 13.7676 10.0391 13.8232C9.87684 13.8789 9.72888 13.9695 9.60547 14.0879C9.46173 14.2752 9.37077 14.4977 9.34277 14.7314H7.55762C7.57342 14.1866 7.75501 13.6589 8.0791 13.2187C8.56947 12.6011 9.41247 12.292 10.6074 12.292ZM25.2695 12.2207C26.4805 12.2203 27.3844 12.5897 27.9805 13.3301C28.5762 14.0737 28.8909 15.0006 28.8711 15.9502C28.8955 16.904 28.5803 17.8361 27.9805 18.582C27.3853 19.3097 26.4814 19.6737 25.2695 19.6738C24.0587 19.6729 23.1552 19.3089 22.5605 18.582C21.9596 17.8367 21.6437 16.9043 21.668 15.9502C21.6482 15.0002 21.9636 14.0731 22.5605 13.3301C23.156 12.5901 24.0595 12.2207 25.2695 12.2207ZM11.7412 16.0625C11.6288 16.1342 11.5083 16.1937 11.3828 16.2392C11.222 16.2951 11.0566 16.3377 10.8887 16.3662L10.4658 16.4433C10.1709 16.4802 9.88383 16.565 9.61621 16.6933C9.47729 16.7692 9.36239 16.8821 9.28516 17.0195C9.20794 17.157 9.17168 17.3135 9.17969 17.4707C9.16781 17.5968 9.18507 17.7248 9.23145 17.8428C9.27783 17.9607 9.35156 18.0665 9.44629 18.1513C9.63212 18.2933 9.86222 18.3667 10.0967 18.3603C10.4957 18.3616 10.8854 18.2403 11.2119 18.0127C11.3974 17.8602 11.5426 17.6651 11.6348 17.4443C11.7269 17.2234 11.7628 16.9831 11.7402 16.7451L11.7412 16.0625ZM25.2627 13.7666C25.0266 13.7666 24.7926 13.8171 24.5781 13.915C24.3638 14.0129 24.1731 14.1562 24.0195 14.334C23.6991 14.8106 23.5459 15.3785 23.583 15.9502C23.546 16.523 23.699 17.0925 24.0195 17.5703C24.1724 17.7493 24.3635 17.8926 24.5781 17.9912C24.7927 18.0898 25.0263 18.1416 25.2627 18.1416C25.4991 18.1415 25.7328 18.0898 25.9473 17.9912C26.1617 17.8926 26.352 17.7491 26.5049 17.5703C26.8225 17.0913 26.975 16.5224 26.9385 15.9502C26.9751 15.379 26.8224 14.8118 26.5049 14.334C26.3513 14.1561 26.1608 14.0129 25.9463 13.915C25.7319 13.8172 25.4987 13.7666 25.2627 13.7666ZM17.6396 13.8164C17.3905 13.7905 17.1389 13.84 16.9189 13.959C16.6991 14.0779 16.5212 14.2607 16.4082 14.4824C16.1859 14.9589 16.0756 15.4799 16.0859 16.0049C16.086 17.231 16.4434 17.9116 17.1582 18.0459C17.8721 18.1783 18.3991 18.0135 18.7383 17.5517C18.93 17.2792 19.0498 16.963 19.0869 16.6328C19.158 16.2226 19.1626 15.8032 19.1006 15.3916C19.0445 14.9966 18.8927 14.621 18.6582 14.2969C18.5426 14.1387 18.3888 14.0116 18.2109 13.9277C18.033 13.8438 17.8363 13.8054 17.6396 13.8164ZM3.38281 13.8398C3.15966 13.8311 2.93759 13.8776 2.7373 13.9756C2.5372 14.0735 2.3651 14.2196 2.23633 14.4004C1.94498 14.8824 1.81177 15.4426 1.85547 16.0029C1.81518 16.5414 1.95949 17.0773 2.26465 17.5244C2.39698 17.708 2.5734 17.856 2.77832 17.9541C2.98309 18.052 3.20948 18.0974 3.43652 18.0859C3.65537 18.093 3.87296 18.0453 4.06836 17.9472C4.26378 17.8492 4.43075 17.7035 4.55469 17.5244C4.85085 17.0732 4.99457 16.5405 4.96484 16.0029C5.00083 15.4394 4.85812 14.8787 4.55566 14.4004C4.42297 14.2172 4.24584 14.0697 4.04102 13.9717C3.83624 13.8737 3.60988 13.8288 3.38281 13.8398ZM14.3779 2.22068C14.9471 2.2122 15.5115 2.32323 16.0342 2.54686C16.5311 2.77052 16.9545 3.12941 17.2539 3.58201C17.549 4.01549 17.7405 4.51039 17.8145 5.0283C17.8703 5.48888 17.8906 5.95331 17.876 6.41697H12.7402C12.7273 6.70422 12.7901 6.98996 12.9219 7.24607C13.0537 7.50214 13.2501 7.71984 13.4922 7.87791C13.7912 8.0506 14.1351 8.13289 14.4805 8.11326C14.8483 8.14269 15.2151 8.04378 15.5176 7.83396C15.6151 7.7536 15.7008 7.65907 15.7715 7.55467H17.7402C17.6199 7.95703 17.3979 8.32249 17.0957 8.61619C16.7533 8.96494 16.3393 9.23688 15.8818 9.41307C15.4242 9.58925 14.9334 9.66601 14.4434 9.63768C13.5393 9.6491 12.6599 9.34409 11.96 8.77635C11.2422 8.20306 10.8829 7.26982 10.8828 5.97654C10.8838 4.76568 11.2082 3.83591 11.8555 3.18846C12.1868 2.86466 12.5819 2.61187 13.0156 2.44529C13.4493 2.27876 13.9132 2.2026 14.3779 2.22068ZM26.6396 2.21971C27.4452 2.18655 28.2423 2.39261 28.9297 2.81053C29.5235 3.2044 29.8756 3.89964 29.9844 4.89646H27.9932C27.9592 4.64201 27.8628 4.39961 27.7129 4.19041C27.5894 4.04406 27.4323 3.92926 27.2549 3.85545C27.0775 3.78168 26.8851 3.75047 26.6934 3.76561C26.3986 3.74972 26.1066 3.83129 25.8633 3.99705C25.6199 4.16297 25.4384 4.40479 25.3477 4.68357C25.2053 5.09953 25.1401 5.53755 25.1553 5.97654C25.1402 6.39655 25.2054 6.81601 25.3477 7.21189C25.4387 7.48028 25.6165 7.71125 25.8535 7.86912C26.0908 8.02708 26.375 8.10327 26.6602 8.08494C26.8375 8.10273 27.0168 8.08128 27.1846 8.02146C27.3524 7.96164 27.5045 7.86499 27.6299 7.73924C27.8331 7.48029 27.9543 7.16709 27.9785 6.83982H29.9629C29.9096 7.41682 29.6862 7.96553 29.3213 8.41795C29.0018 8.82146 28.5885 9.14238 28.1162 9.35154C27.6439 9.56072 27.1265 9.65163 26.6104 9.61814C25.4145 9.61776 24.534 9.28495 23.9697 8.61814C23.3821 7.88192 23.0824 6.95959 23.124 6.02146C23.0613 5.00331 23.3963 4.00021 24.0596 3.22068C24.3925 2.8808 24.7953 2.61594 25.2402 2.44334C25.6853 2.27073 26.1625 2.19398 26.6396 2.21971ZM48.3965 2.16209C49.6083 2.16188 50.5125 2.53162 51.1074 3.27146C51.6669 3.96856 51.9796 4.82725 52 5.71482V6.07127C51.9834 6.96291 51.6709 7.82625 51.1074 8.52537C50.5129 9.25376 49.6088 9.61814 48.3965 9.61814C47.1854 9.61739 46.2824 9.25301 45.6875 8.52537C45.0863 7.77992 44.7698 6.84785 44.7939 5.89353C44.7741 4.94302 45.0903 4.01509 45.6875 3.27146C46.2829 2.53196 47.1859 2.16218 48.3965 2.16209ZM33.8262 2.19627C34.5432 2.18299 35.2534 2.33947 35.8975 2.65232C36.5007 2.9578 36.8027 3.53302 36.8027 4.37791V7.01268C36.766 7.48882 36.8111 9.77797 32.7744 9.59861C32.1951 9.60631 31.6308 9.41416 31.1787 9.05467C30.9647 8.86056 30.7974 8.62102 30.6885 8.35447C30.5795 8.08784 30.5314 7.79985 30.5488 7.51268C30.5229 7.13768 30.605 6.76283 30.7842 6.43162C30.9634 6.10046 31.2331 5.82644 31.5625 5.64061C32.0735 5.38925 32.6278 5.23618 33.1963 5.18943L33.8291 5.11228C34.0817 5.09058 34.3308 5.03645 34.5693 4.95115C34.683 4.91772 34.7829 4.84859 34.8545 4.75486C34.9261 4.66113 34.966 4.54725 34.9678 4.42967C34.9798 4.31205 34.9573 4.19325 34.9033 4.08787C34.8492 3.98245 34.7651 3.89457 34.6621 3.83494C34.3803 3.70925 34.0721 3.65238 33.7637 3.6699C33.593 3.65226 33.42 3.67204 33.2578 3.72752C33.0955 3.7831 32.9467 3.87376 32.8232 3.99217C32.6792 4.17948 32.5885 4.40174 32.5605 4.63572H30.7754C30.7911 4.09049 30.9724 3.56239 31.2969 3.12205C31.7877 2.50481 32.6311 2.19634 33.8262 2.19627ZM44.2393 0.00876924L44.2383 6.6992C44.2385 6.71308 44.27 9.60638 40.8604 9.60643C39.8799 9.60643 38.7769 9.3158 38.2139 8.65623C37.631 7.93738 37.3305 7.03305 37.3691 6.11131C37.3119 5.09054 37.6054 4.08033 38.2012 3.24607C38.4637 2.91391 38.8018 2.64796 39.1875 2.46971C39.5733 2.29146 39.9965 2.20528 40.4219 2.21971C40.8195 2.2124 41.2121 2.30898 41.5605 2.499C41.8919 2.68406 42.1701 2.95047 42.3682 3.27244L42.3701 1.29978C42.3703 -0.178802 44.212 0.0059619 44.2393 0.00876924ZM7.19727 2.19627C9.04868 2.19627 10.1405 3.46401 10.1406 5.26658V9.46092H8.44531V5.22654C8.46382 5.05635 8.4448 4.88386 8.38965 4.72166C8.33452 4.55954 8.24454 4.41135 8.12598 4.28709C8.00732 4.16279 7.86242 4.06541 7.70215 4.00193C7.54212 3.93861 7.3703 3.90996 7.19824 3.91893C7.02534 3.91381 6.85277 3.94449 6.69238 4.00877C6.53197 4.07308 6.38642 4.17008 6.26562 4.29295C6.14496 4.41576 6.05097 4.56207 5.99023 4.72264C5.92948 4.88329 5.90359 5.05522 5.91309 5.22654V9.46092H4.2168V5.22654C4.23703 5.05716 4.21967 4.88469 4.16602 4.72264C4.11235 4.56066 4.02277 4.41251 3.90527 4.28807C3.78779 4.16367 3.64474 4.06563 3.48535 4.00193C3.3259 3.93823 3.15408 3.91002 2.98242 3.91893C2.80918 3.91261 2.63656 3.94298 2.47559 4.00682C2.31457 4.07069 2.16799 4.1669 2.04688 4.29002C1.92589 4.41308 1.83285 4.56054 1.77246 4.72166C1.71209 4.88282 1.68568 5.05494 1.69629 5.22654V9.46092H0V5.26658C2.70146e-06 3.51773 1.16978 2.19627 2.98242 2.19627C3.38572 2.18607 3.78568 2.26947 4.15137 2.43846C4.51719 2.60755 4.83922 2.85785 5.09082 3.17088C5.34665 2.86313 5.66875 2.61582 6.0332 2.44725C6.39757 2.27876 6.79527 2.19285 7.19727 2.19627ZM22.6787 2.22264C22.702 2.22545 22.7559 2.2273 22.8379 2.23338V4.10643C22.7197 4.09213 22.6167 4.08476 22.5264 4.08006C22.436 4.07599 22.3624 4.07225 22.3066 4.07225C21.5651 4.07272 21.0666 4.31244 20.8115 4.791C20.6466 5.18519 20.5739 5.612 20.5986 6.03807V9.45994H18.7422V5.8115C18.7422 5.8115 18.5003 2.21873 22.5908 2.21873C22.6253 2.21874 22.6547 2.22061 22.6787 2.22264ZM34.96 5.96775C34.8477 6.03931 34.7279 6.09816 34.6025 6.14353C34.4411 6.19937 34.2749 6.24241 34.1064 6.27146L33.6855 6.34861C33.3903 6.38531 33.1028 6.47014 32.835 6.59861C32.6959 6.67462 32.5811 6.78812 32.5039 6.92576C32.4267 7.06338 32.3902 7.21967 32.3984 7.37693C32.3865 7.50297 32.4039 7.63004 32.4502 7.74803C32.4965 7.86604 32.5704 7.97166 32.665 8.05662C32.8508 8.19852 33.0801 8.27291 33.3145 8.26658C33.7137 8.26783 34.104 8.14561 34.4307 7.91795C34.616 7.76526 34.7613 7.57034 34.8535 7.34959C34.9458 7.12866 34.9822 6.8885 34.96 6.65037V5.96775ZM40.8359 3.81736C40.6014 3.80212 40.3672 3.85116 40.1582 3.95799C39.9492 4.06492 39.773 4.22627 39.6494 4.42478C39.3837 4.88123 39.2533 5.40294 39.2725 5.92967C39.2463 6.48718 39.3791 7.04063 39.6562 7.52635C39.782 7.71654 39.9562 7.87067 40.1611 7.97264C40.366 8.07454 40.5945 8.12109 40.8232 8.1074C41.0547 8.11975 41.2859 8.07271 41.4941 7.97166C41.7023 7.87065 41.8814 7.71901 42.0137 7.53025C42.3023 7.08569 42.445 6.56243 42.4219 6.03416C42.4218 5.18017 42.2033 4.51961 41.7686 4.15135C41.5087 3.9321 41.1771 3.81289 40.8359 3.81736ZM48.3896 3.70799C48.1534 3.70799 47.9197 3.75852 47.7051 3.85643C47.4904 3.95434 47.2993 4.09744 47.1455 4.27537C46.8261 4.75292 46.6731 5.32158 46.71 5.89353C46.6734 6.4665 46.8261 7.03584 47.1455 7.51463C47.2987 7.69345 47.4894 7.83699 47.7041 7.93553C47.9188 8.03406 48.153 8.08494 48.3896 8.08494C48.6261 8.08491 48.8596 8.03395 49.0742 7.93553C49.2889 7.83703 49.4797 7.69338 49.6328 7.51463C49.95 7.03495 50.1024 6.46605 50.0664 5.89353C50.1027 5.32193 49.9501 4.75386 49.6328 4.27537C49.4791 4.09754 49.2887 3.95434 49.0742 3.85643C48.8596 3.75854 48.6258 3.70802 48.3896 3.70799ZM14.3779 3.72752C14.1766 3.71536 13.9746 3.74476 13.7852 3.81346C13.5957 3.88216 13.4223 3.98885 13.2764 4.12693C13.0007 4.42642 12.8292 4.80566 12.7861 5.20896H15.9619C15.9601 5.00169 15.9153 4.79711 15.8311 4.6074C15.7468 4.41761 15.6247 4.24676 15.4717 4.10545C15.1668 3.84964 14.7771 3.71484 14.3779 3.72752Z" fill="#0A0080"/>
</svg>
