<svg width="24" height="24" viewBox="0 0 24 24" fill="none" xmlns="http://www.w3.org/2000/svg">
<path d="M15.7 3C14.022 3 12.815 3.669 12 4.393C11.185 3.669 9.978 3 8.3 3C4.681 3 2.25 6.366 2.25 9.51C2.25 15.494 11.276 20.5 12 20.5C12.724 20.5 21.75 15.494 21.75 9.51C21.75 6.366 19.319 3 15.7 3ZM12 18.928C10.369 18.105 3.75 13.983 3.75 9.51C3.75 7.091 5.578 4.5 8.3 4.5C9.855 4.5 10.862 5.289 11.432 5.95C11.717 6.281 12.283 6.281 12.568 5.95C13.139 5.289 14.146 4.5 15.7 4.5C18.422 4.5 20.25 7.09 20.25 9.51C20.25 13.982 13.631 18.104 12 18.928Z" fill="white"/>
</svg>
