<svg width="20" height="20" viewBox="0 0 20 20" fill="none" xmlns="http://www.w3.org/2000/svg">
<path d="M10.5459 0.926592C10.8541 0.843299 11.184 0.91507 11.4297 1.11897C12.3095 1.84921 13.7413 3.16404 14.96 4.88265C16.1741 6.59495 17.2324 8.78713 17.2324 11.2498C17.2324 13.1678 16.4695 15.0069 15.1133 16.3631C13.8418 17.6346 12.1459 18.3838 10.3584 18.4725L10 18.4813C8.08197 18.4813 6.243 17.7193 4.88672 16.3631C3.53049 15.0069 2.76764 13.1678 2.76758 11.2498C2.76758 8.55616 4.03297 6.18437 5.39062 4.40413C5.56084 4.18094 5.81873 4.04128 6.09863 4.02034C6.37849 3.99942 6.65397 4.09943 6.85547 4.29476L8.3457 5.74007L9.87988 1.53792L9.92773 1.42855C10.0529 1.18313 10.2765 0.999525 10.5459 0.926592ZM9.67285 7.83675C9.55873 8.14912 9.29387 8.38244 8.96973 8.45687C8.64545 8.53122 8.3053 8.43645 8.06641 8.20491L6.3125 6.50374C5.39512 7.92259 4.73242 9.54377 4.73242 11.2498C4.73249 12.6469 5.28753 13.9866 6.27539 14.9744C7.26329 15.9623 8.60294 16.5174 10 16.5174L10.2607 16.5116C11.5628 16.447 12.7984 15.9006 13.7246 14.9744C14.7125 13.9866 15.2675 12.6469 15.2676 11.2498C15.2676 9.34929 14.4454 7.55275 13.3574 6.01839C12.6727 5.05275 11.9038 4.22201 11.2275 3.5721L9.67285 7.83675ZM12.0449 11.8914C12.2082 11.3744 12.7603 11.0869 13.2773 11.2498C13.7946 11.4132 14.0822 11.966 13.9189 12.4832C13.7199 13.1133 13.3715 13.6859 12.9043 14.1532C12.4369 14.6206 11.8637 14.9697 11.2334 15.1688C10.7162 15.3321 10.1643 15.0444 10.001 14.5272C9.83776 14.01 10.1245 13.4581 10.6416 13.2948C10.971 13.1907 11.2703 13.0087 11.5146 12.7645C11.7589 12.5202 11.9409 12.2208 12.0449 11.8914Z" fill="white" fill-opacity="0.9"/>
</svg>
